HIERARCHY
ROOT hip
{
  OFFSET 0 0 0
  CHANNELS 6 Xposition Yposition Zposition Zrotation Yrotation Xrotation
  JOINT abdomen
  {
    OFFSET 0 20.6881 -0.73152
    CHANNELS 3 Zrotation Xrotation Yrotation
    JOINT chest
    {
      OFFSET 0 11.7043 -0.48768
      CHANNELS 3 Zrotation Xrotation Yrotation
      JOINT neck
      {
        OFFSET 0 22.1894 -2.19456
        CHANNELS 3 Zrotation Xrotation Yrotation
        JOINT head
        {
          OFFSET -0.24384 7.07133 1.2192
          CHANNELS 3 Zrotation Xrotation Yrotation
          JOINT leftEye
          {
            OFFSET 4.14528 8.04674 8.04672
            CHANNELS 3 Zrotation Xrotation Yrotation
            End Site
            {
              OFFSET 1 0 0
            }
          }
          JOINT rightEye
          {
            OFFSET -3.6576 8.04674 8.04672
            CHANNELS 3 Zrotation Xrotation Yrotation
            End Site
            {
              OFFSET 1 0 0
            }
          }
        }
      }
      JOINT rCollar
      {
        OFFSET -2.68224 19.2634 -4.8768
        CHANNELS 3 Zrotation Xrotation Yrotation
        JOINT rShldr
        {
          OFFSET -8.77824 -1.95073 1.46304
          CHANNELS 3 Zrotation Xrotation Yrotation
          JOINT rForeArm
          {
            OFFSET -28.1742 -1.7115 0.48768
            CHANNELS 3 Zrotation Xrotation Yrotation
            JOINT rHand
            {
              OFFSET -22.5879 0.773209 7.07136
              CHANNELS 3 Zrotation Xrotation Yrotation
              JOINT rThumb1
              {
                OFFSET -1.2192 -0.487915 3.41376
                CHANNELS 3 Zrotation Xrotation Yrotation
                JOINT rThumb2
                {
                  OFFSET -3.37035 -0.52449 3.41376
                  CHANNELS 3 Zrotation Xrotation Yrotation
                  End Site
                  {
                    OFFSET -1.78271 -1.18214 1.43049
                  }
                }
              }
              JOINT rIndex1
              {
                OFFSET -7.75947 0.938293 5.60832
                CHANNELS 3 Zrotation Xrotation Yrotation
                JOINT rIndex2
                {
                  OFFSET -2.54057 -0.884171 1.56538
                  CHANNELS 3 Zrotation Xrotation Yrotation
                  End Site
                  {
                    OFFSET -1.62519 -0.234802 1.16502
                  }
                }
              }
              JOINT rMid1
              {
                OFFSET -8.24714 1.18213 3.41376
                CHANNELS 3 Zrotation Xrotation Yrotation
                JOINT rMid2
                {
                  OFFSET -3.10165 -0.590103 1.0647
                  CHANNELS 3 Zrotation Xrotation Yrotation
                  End Site
                  {
                    OFFSET -2.48547 -0.328903 0.83742
                  }
                }
              }
              JOINT rRing1
              {
                OFFSET -8.82822 0.546677 1.51678
                CHANNELS 3 Zrotation Xrotation Yrotation
                JOINT rRing2
                {
                  OFFSET -2.60934 -0.819778 -0.0198488
                  CHANNELS 3 Zrotation Xrotation Yrotation
                  End Site
                  {
                    OFFSET -2.33842 -0.294052 0.168128
                  }
                }
              }
              JOINT rPinky1
              {
                OFFSET -8.27202 -0.0477905 -0.4584
                CHANNELS 3 Zrotation Xrotation Yrotation
                JOINT rPinky2
                {
                  OFFSET -1.82734 -0.647385 -0.700984
                  CHANNELS 3 Zrotation Xrotation Yrotation
                  End Site
                  {
                    OFFSET -1.69225 -0.51767 -0.607171
                  }
                }
              }
            }
          }
        }
      }
      JOINT lCollar
      {
        OFFSET 2.68224 19.2634 -4.8768
        CHANNELS 3 Zrotation Xrotation Yrotation
        JOINT lShldr
        {
          OFFSET 8.77824 -1.95073 1.46304
          CHANNELS 3 Zrotation Xrotation Yrotation
          JOINT lForeArm
          {
            OFFSET 28.1742 -1.7115 0.48768
            CHANNELS 3 Zrotation Xrotation Yrotation
            JOINT lHand
            {
              OFFSET 22.5879 0.773209 7.07136
              CHANNELS 3 Zrotation Xrotation Yrotation
              JOINT lThumb1
              {
                OFFSET 1.2192 -0.487915 3.41376
                CHANNELS 3 Zrotation Xrotation Yrotation
                JOINT lThumb2
                {
                  OFFSET 3.37035 -0.52449 3.41376
                  CHANNELS 3 Zrotation Xrotation Yrotation
                  End Site
                  {
                    OFFSET 1.78271 -1.18214 1.43049
                  }
                }
              }
              JOINT lIndex1
              {
                OFFSET 7.75947 0.938293 5.60832
                CHANNELS 3 Zrotation Xrotation Yrotation
                JOINT lIndex2
                {
                  OFFSET 2.54057 -0.884171 1.56538
                  CHANNELS 3 Zrotation Xrotation Yrotation
                  End Site
                  {
                    OFFSET 1.62519 -0.234802 1.16502
                  }
                }
              }
              JOINT lMid1
              {
                OFFSET 8.24714 1.18213 3.41376
                CHANNELS 3 Zrotation Xrotation Yrotation
                JOINT lMid2
                {
                  OFFSET 3.10165 -0.590103 1.0647
                  CHANNELS 3 Zrotation Xrotation Yrotation
                  End Site
                  {
                    OFFSET 2.48547 -0.328903 0.83742
                  }
                }
              }
              JOINT lRing1
              {
                OFFSET 8.82822 0.546677 1.51678
                CHANNELS 3 Zrotation Xrotation Yrotation
                JOINT lRing2
                {
                  OFFSET 2.60934 -0.819778 -0.0198488
                  CHANNELS 3 Zrotation Xrotation Yrotation
                  End Site
                  {
                    OFFSET 2.33842 -0.294052 0.168128
                  }
                }
              }
              JOINT lPinky1
              {
                OFFSET 8.27202 -0.0477905 -0.4584
                CHANNELS 3 Zrotation Xrotation Yrotation
                JOINT lPinky2
                {
                  OFFSET 1.82734 -0.647385 -0.700984
                  CHANNELS 3 Zrotation Xrotation Yrotation
                  End Site
                  {
                    OFFSET 1.69225 -0.51767 -0.607171
                  }
                }
              }
            }
          }
        }
      }
    }
  }
  JOINT rButtock
  {
    OFFSET -8.77824 4.35084 1.2192
    CHANNELS 3 Zrotation Xrotation Yrotation
    JOINT rThigh
    {
      OFFSET 0 -1.70687 -2.19456
      CHANNELS 3 Zrotation Xrotation Yrotation
      JOINT rShin
      {
        OFFSET 0 -36.8199 0.73152
        CHANNELS 3 Zrotation Xrotation Yrotation
        JOINT rFoot
        {
          OFFSET 0.73152 -45.1104 -5.12064
          CHANNELS 3 Zrotation Xrotation Yrotation
          End Site
          {
            OFFSET -1.1221 -3.69964 12.103
          }
        }
      }
    }
  }
  JOINT lButtock
  {
    OFFSET 8.77824 4.35084 1.2192
    CHANNELS 3 Zrotation Xrotation Yrotation
    JOINT lThigh
    {
      OFFSET 0 -1.70687 -2.19456
      CHANNELS 3 Zrotation Xrotation Yrotation
      JOINT lShin
      {
        OFFSET 0 -36.8199 0.73152
        CHANNELS 3 Zrotation Xrotation Yrotation
        JOINT lFoot
        {
          OFFSET -0.73152 -45.1104 -5.12064
          CHANNELS 3 Zrotation Xrotation Yrotation
          End Site
          {
            OFFSET 1.1221 -3.69964 12.103
          }
        }
      }
    }
  }
}
MOTION
Frames:	7
Frame Time:	0.03333
0.0 0.0 0.0 0.0 0.0 0.0 0.0 0.0 0.0 0.0 0.0 0.0 0.0 0.0 0.0 0.0 0.0 0.0 0.0 0.0 0.0 0.0 0.0 0.0 0.0 0.0 0.0 0.0 0.0 0.0 0.0 0.0 0.0 0.0 0.0 0.0 0.0 0.0 0.0 0.0 0.0 0.0 0.0 0.0 0.0 0.0 0.0 0.0 0.0 0.0 0.0 0.0 0.0 0.0 0.0 0.0 0.0 0.0 0.0 0.0 0.0 0.0 0.0 0.0 0.0 0.0 0.0 0.0 0.0 0.0 0.0 0.0 0.0 0.0 0.0 0.0 0.0 0.0 0.0 0.0 0.0 0.0 0.0 0.0 0.0 0.0 0.0 0.0 0.0 0.0 0.0 0.0 0.0 0.0 0.0 0.0 0.0 0.0 0.0 0.0 0.0 0.0 0.0 0.0 0.0 0.0 0.0 0.0 0.0 0.0 0.0 0.0 0.0 0.0 0.0 0.0 0.0 0.0 0.0 0.0 0.0 0.0 0.0 0.0 0.0 0.0 0.0 0.0 0.0 0.0 0.0 0.0
-2.7033 58.08 0.3564 7.543695 -42.364724 7.497644 -6.048542 9.786885 -148.062309 4.9284 8.437454 142.738197 -14.123669 25.681106 -93.250064 42.143967 12.11961 63.816764 0.001387 0.0 0.000131 -0.004308 -0.0 0.000706 -14.148337 43.061603 15.996289 49.57865 -0.966723 37.638428 -58.026386 18.257249 35.412996 17.578282 -35.321689 10.318439 -6.582044 6.34449 1.365494 -109.917125 -0.850652 99.663204 -148.885285 -12.609833 120.245201 132.420853 -69.451707 76.222606 -0.57155 1.64823 0.322584 13.837783 -31.956317 -1.310303 -145.120293 0.267009 -179.213963 10.196878 -0.130375 -9.009909 -8.187894 -17.576741 -7.728364 -146.5923 10.368116 -143.324171 -0.118019 -0.714073 0.157754 -3.804966 62.089366 -72.781772 -135.03831 5.418794 -136.356373 172.682787 35.382008 -143.685983 19.687801 17.543837 -5.976052 -20.538317 -20.566035 0.601426 77.666649 43.029598 -64.538917 172.165343 -22.852265 -113.509526 171.868776 -41.091385 -145.160568 42.547045 58.287808 -36.525447 0.0007 -0.061035 0.017871 -6.920268 29.712469 -4.674534 77.071603 -51.584597 75.52992 153.712596 36.256769 147.177284 179.999606 75.748442 -0.0 150.12044 -0.301772 -89.474787 -87.35375 12.963782 173.757209 24.001155 71.743485 -117.996429 -0.0 0.0012 0.000306 12.403822 12.713206 -180.0 8.635454 -30.12038 106.879656 83.526196 -51.384496 170.39275
-4.1281 58.3193 0.4979 6.390711 -43.304799 8.578509 -8.619306 10.861778 111.557665 -11.38946 0.258095 -115.38574 -14.356921 24.576099 -86.572477 42.097378 7.927973 59.045544 -7e-06 0.0 -0.000897 -6.5e-05 -0.0 0.000988 -143.620671 38.23341 148.080591 33.840288 -52.131979 67.677815 -20.397324 -70.525134 19.689714 -4.894258 26.33165 1.788834 4.530901 -4.514084 -0.521332 -110.231561 6.576561 100.018956 -19.172234 24.113923 13.381183 -3.362257 16.102949 3.072538 0.047557 -0.138553 -0.027172 -172.071801 -31.344935 144.105311 -0.059973 -3.51012 -1.105631 10.607753 0.088229 -0.066693 27.13872 80.263471 10.021527 -129.328435 -28.681216 -126.2052 -1.623505 -11.082099 2.304629 -69.830444 9.702704 -13.807015 0.210342 21.788099 -37.574481 6.461208 22.62632 -0.813809 2.820335 2.761927 -0.498793 175.030718 -76.144058 -104.555048 -129.217963 -75.529398 -76.343353 128.641666 29.473422 -106.287664 -89.034198 -81.394496 -59.757732 163.419389 -4.579226 -143.12733 145.099472 -1.520836 178.649615 66.685465 87.685552 -80.078824 46.80089 -48.623634 45.561316 73.266044 -54.381466 73.897521 -0.000511 -1.7e-05 0.000657 -66.63474 -56.989334 109.914326 151.323014 -83.639778 -173.334122 -158.549879 71.384321 -107.921558 0.002648 -0.000751 0.001324 14.393341 11.631301 -101.280236 -29.447792 -9.456756 75.412317 64.150334 39.710188 6.358417
-5.6654 58.596599999999995 0.6807 5.02652 -44.233384 9.596349 -5.289474 14.290903 -0.0 1.801837 -13.735766 -3.058765 -11.997443 29.301302 -117.034271 40.079894 26.877397 83.212065 0.003106 -0.0 -0.001334 0.003169 -0.0 -0.003214 0.023095 -0.138674 -0.030582 -116.185041 2.874187 172.531807 -177.615812 -11.9344 -138.799622 -8.749864 36.87606 2.843639 -169.145683 -6.826499 89.915754 -126.629988 11.383245 60.905292 -1.16165 1.86088 0.669426 96.686455 -61.305873 43.73058 -36.034681 51.723977 29.830817 -7.192075 26.20175 6.143001 -70.641655 72.966302 88.425043 4.971405 -24.9217 -7.811168 -156.38482 53.734051 -150.116712 -6.479382 -17.363932 -8.49689 81.470194 68.343188 -84.578765 93.513436 21.181083 -76.02443 -6.085561 -2.368606 68.656724 -167.18986 -23.82781 -142.750468 169.583309 -7.265269 -89.931234 -7.638611 -56.79044 -12.762617 108.428207 34.161874 -91.743359 119.971142 44.064347 -92.189621 148.320956 24.248567 -135.133025 167.324168 -17.372466 -143.863005 145.065116 -3.22608 178.113161 151.580137 -28.0401 174.723435 156.865525 55.541404 150.329153 24.594199 -39.184902 25.161501 0.000409 0.000646 0.000409 -60.112172 -55.599838 -0.0 94.134907 26.085857 111.541515 29.337001 -1.071168 134.467993 -179.998997 75.750864 -0.001035 -109.058438 73.863443 -167.118932 -50.489672 -9.435649 -87.46978 -82.725594 -16.339775 171.809473
-7.1347 58.924699999999994 0.8609 3.225802 -45.022459 10.692403 -1.77991 13.253019 -65.430166 10.92931 -5.32445 63.098857 -2.738103 12.917569 14.566585 -8.738314 -28.629184 -41.326337 -0.003574 0.0 -0.005188 0.00252 0.0 0.001679 -155.504878 -3.514586 161.838156 145.734087 -26.354898 173.76015 -25.004014 -10.627059 31.494325 2.145425 3.945624 2.02605 -93.743591 37.963551 53.54855 -52.756308 -3.063498 45.606098 -27.42047 30.639338 20.099328 0.047966 10.985232 0.887139 -36.035872 51.723728 29.830783 29.665454 -60.158993 6.558413 -145.119431 0.267816 -179.212427 -148.138127 -43.031835 -170.604637 -75.779271 -51.66884 -74.249169 50.944561 82.82762 -12.665913 -3.269233 -26.755779 5.241857 -70.826879 15.570595 0.522064 -100.323764 -37.5278 -64.096436 167.242146 45.355702 -140.438518 -88.928238 -50.83147 -37.599821 52.605332 26.948967 -12.610753 95.098584 39.750481 -80.124941 2.235402 13.596566 2.686102 -23.903651 -61.333871 -1.39812 -179.57503 -49.499542 -141.069964 0.008115 -0.87212 0.273903 23.315845 72.958105 -36.416278 24.987543 -37.659616 24.060395 158.738682 54.18832 149.54046 0.002217 0.000434 0.001109 -53.450789 -55.957842 -48.757254 68.436608 83.720264 -165.770637 -87.646838 -84.064338 7.875219 179.986891 75.74977 0.008969 -118.044275 72.511309 -63.065895 -11.581175 46.958718 -37.564783 -6.652089 -18.044834 77.362119
-8.497399999999999 59.0699 0.9530000000000001 1.141067 -45.56022 11.951766 -2.331654 15.07448 0.51286 1.970938 -13.331599 -2.122837 7.367392 20.65689 86.144649 -37.964227 7.58679 -108.332068 -0.003414 0.0 -0.001679 -0.003414 0.0 -0.001679 3.26897 -26.755813 -5.241712 -116.891145 -20.087119 -166.05372 -87.08149 -33.752737 -103.637809 24.037861 -44.646569 15.417815 -89.136273 38.427228 50.299031 -125.668594 -17.813502 77.142753 -148.886132 -12.61043 120.243373 -164.258562 -20.685344 119.436994 -10.975592 25.789841 7.640545 -88.632885 64.060668 80.456089 -0.022619 -1.806283 -0.569652 -145.054987 52.63116 159.601122 -1.203578 -3.04736 -1.117018 -160.40513 58.450123 -150.126566 50.901245 -86.504426 72.592472 71.983187 -36.029657 106.550304 -87.825292 38.37725 108.235751 162.439968 52.344104 -137.119258 173.314655 -10.987568 -89.909863 5.736359 -51.753283 -5.222334 50.386326 40.825102 -40.026104 168.762312 -17.602525 -112.247428 0.057655 0.167886 -0.031959 13.368533 36.411805 -10.634223 70.378374 -72.129329 87.280527 58.348482 -82.334745 84.257777 -26.853624 80.011867 -10.217599 22.258689 -37.854581 22.393978 -179.990214 75.749886 -0.008052 153.672601 8.539617 59.937048 84.120801 25.903736 -156.42238 -86.90982 -56.438385 9.931076 -0.000213 -0.000245 0.000274 17.730005 -1.069727 -90.406413 -64.022399 -7.376265 0.21686 -4.369309 44.479606 84.189761
-10.0487 59.0358 1.1054 -1.154628 -45.89361 13.108036 -0.197265 10.958453 -177.074701 -1.670397 8.46105 175.867656 -7.792295 31.932504 -141.354084 31.024167 39.186125 106.3976 0.002685 0.0 0.00239 -0.002973 -0.0 0.000776 -155.80965 -5.555375 162.266856 149.050305 1.199425 174.104679 -177.792103 7.522603 102.624405 160.234648 -32.369593 140.599045 -178.5191 -16.064277 89.476651 -128.786805 15.635618 64.032514 -19.171553 24.114316 13.380677 -163.767314 -12.723698 110.58052 -175.76844 -50.334464 144.095959 11.372616 -24.926721 -1.200471 -6.7e-05 0.063884 0.019342 10.313379 0.212551 -0.039591 -131.317139 -20.05086 -128.881237 2.603117 -0.85558 -2.040026 0.122293 0.72696 -0.16262 -53.823358 35.183931 -32.081837 -79.659664 -42.135477 -82.226755 94.929779 75.078845 -75.811752 78.030576 38.689627 -42.412625 37.677271 -1.09322 -41.235715 2.685654 4.22681 -1.584367 151.548997 1.396396 -109.051522 -7.904744 -24.807498 3.013646 -165.959318 -65.580621 -131.646961 -0.002048 0.022718 -0.006148 -9.786165 6.860072 -0.830911 123.036175 -31.102461 120.853477 43.60518 -49.759161 44.880974 -0.0 -8e-05 -0.001072 -43.510526 -55.003857 -38.360342 61.533224 78.792803 -141.033781 -65.149035 -63.281563 25.441383 0.000519 -8e-05 -0.000668 18.691075 -7.471645 -89.863908 -70.839196 -2.790126 54.952386 71.334726 18.810478 -15.66248
